<svg width="100" height="100" viewBox="0 0 100 100" xmlns="http://www.w3.org/2000/svg" role="img" aria-label="USAM World Cup 2026">
<defs><linearGradient id="sh" x1="0" y1="0" x2="0" y2="1"><stop offset="0" stop-color="#ffffff" stop-opacity="0.12"/><stop offset="1" stop-color="#000000" stop-opacity="0.18"/></linearGradient></defs>
<rect x="2" y="2" width="96" height="96" rx="22" fill="#06a77d"/>
<rect x="2" y="2" width="96" height="96" rx="22" fill="url(#sh)"/>
<circle cx="50" cy="48" r="36" fill="#ffffff"/>
<circle cx="50" cy="48" r="36" fill="none" stroke="#0a1733" stroke-width="2" opacity="0.22"/>
<polygon points="50,36 61.41,44.29 57.05,57.71 42.95,57.71 38.59,44.29" fill="#0a1733"/>
<line x1="50" y1="36" x2="64.11" y2="28.58" stroke="#0a1733" stroke-width="2.2"/>
<line x1="50" y1="36" x2="35.89" y2="28.58" stroke="#0a1733" stroke-width="2.2"/>
<line x1="61.41" y1="44.29" x2="72.83" y2="55.42" stroke="#0a1733" stroke-width="2.2"/>
<line x1="61.41" y1="44.29" x2="64.11" y2="28.58" stroke="#0a1733" stroke-width="2.2"/>
<line x1="57.05" y1="57.71" x2="50" y2="72" stroke="#0a1733" stroke-width="2.2"/>
<line x1="57.05" y1="57.71" x2="72.83" y2="55.42" stroke="#0a1733" stroke-width="2.2"/>
<line x1="42.95" y1="57.71" x2="27.17" y2="55.42" stroke="#0a1733" stroke-width="2.2"/>
<line x1="42.95" y1="57.71" x2="50" y2="72" stroke="#0a1733" stroke-width="2.2"/>
<line x1="38.59" y1="44.29" x2="35.89" y2="28.58" stroke="#0a1733" stroke-width="2.2"/>
<line x1="38.59" y1="44.29" x2="27.17" y2="55.42" stroke="#0a1733" stroke-width="2.2"/>
<polygon points="69.4,21.3 72.67,31.36 64.11,37.58 55.55,31.36 58.82,21.3" fill="#0a1733"/>
<polygon points="81.39,58.2 72.83,64.42 64.27,58.2 67.54,48.14 78.12,48.14" fill="#0a1733"/>
<polygon points="50,81 41.44,74.78 44.71,64.72 55.29,64.72 58.56,74.78" fill="#0a1733"/>
<polygon points="18.61,58.2 21.88,48.14 32.46,48.14 35.73,58.2 27.17,64.42" fill="#0a1733"/>
<polygon points="30.6,21.3 41.18,21.3 44.45,31.36 35.89,37.58 27.33,31.36" fill="#0a1733"/>
<rect x="16" y="70" width="68" height="19" rx="9.5" fill="#e63946"/>
<text x="50" y="84" text-anchor="middle" font-family="'Anton','Archivo Black',Arial,sans-serif" font-size="15" font-weight="800" letter-spacing="1.4" fill="#ffffff">2026</text>
</svg>
